<?xml version="1.0"?>
<svg xmlns="http://www.w3.org/2000/svg" viewBox="0 0 512 512" width="512" height="512"><g id="Outline"><path d="M464,240H452.65a39.984,39.984,0,0,0-73.3,0h-30.7a39.984,39.984,0,0,0-73.3,0h-38.7a39.984,39.984,0,0,0-73.3,0H120v16a24,24,0,0,1-48,0V240H48a32.036,32.036,0,0,0-32,32V464a32.036,32.036,0,0,0,32,32H464a32.036,32.036,0,0,0,32-32V448H480v16a16.019,16.019,0,0,1-16,16H48a16.019,16.019,0,0,1-16-16V411.7A31.793,31.793,0,0,0,48,416h8v8a40,40,0,0,0,80,0v-8h24v8a40,40,0,0,0,80,0v-8h32v8a40,40,0,0,0,80,0v-8h24v8a40,40,0,0,0,80,0v-8h8a31.793,31.793,0,0,0,16-4.305V432h16V272A32.036,32.036,0,0,0,464,240ZM392,376h48v24H392Zm48-16H392V336h48Zm-48-40V287.978a39.912,39.912,0,0,0,48,0V320Zm24-88a24,24,0,1,1-24,24A24.028,24.028,0,0,1,416,232Zm-40,24v64H352V256ZM288,376h48v24H288Zm48-16H288V336h48Zm-48-40V287.978a39.912,39.912,0,0,0,48,0V320Zm24-88a24,24,0,1,1-24,24A24.028,24.028,0,0,1,312,232Zm-40,24v64H240V256ZM176,376h48v24H176Zm48-16H176V336h48Zm-48-40V287.978a39.912,39.912,0,0,0,48,0V320Zm24-88a24,24,0,1,1-24,24A24.028,24.028,0,0,1,200,232Zm-40,24v64H136V256ZM96,296a39.788,39.788,0,0,0,24-8.022V320H72V287.978A39.788,39.788,0,0,0,96,296ZM72,376h48v24H72Zm48-16H72V336h48ZM32,272a16.019,16.019,0,0,1,16-16h8v64H48a16.019,16.019,0,0,1-16-16ZM48,400a16.019,16.019,0,0,1-16-16V331.7A31.793,31.793,0,0,0,48,336h8v64Zm72,24a24,24,0,0,1-48,0v-8h48Zm16-24V336h24v64Zm88,24a24,24,0,0,1-48,0v-8h48Zm16-24V336h32v64Zm96,24a24,24,0,0,1-48,0v-8h48Zm16-24V336h24v64Zm88,24a24,24,0,0,1-48,0v-8h48Zm40-40a16.019,16.019,0,0,1-16,16h-8V336h8a31.793,31.793,0,0,0,16-4.305Zm0-80a16.019,16.019,0,0,1-16,16h-8V256h8a16.019,16.019,0,0,1,16,16Z"/><path d="M496,64H448a8,8,0,0,0-8-8H378.9L333.122,17.854A8,8,0,0,0,328,16H232a7.992,7.992,0,0,0-7.147,4.42c-1.242.855-19.013,18.426-19.013,18.426l-11.119-3.709A21.978,21.978,0,0,0,165.8,56H152a24.007,24.007,0,0,0-17.9,40,23.863,23.863,0,0,0-6.1,16,24.123,24.123,0,0,0,.39,4.3L98.343,146.343a7.992,7.992,0,0,0-1.932,3.127l-8,24a7.99,7.99,0,0,0,.677,6.54c-.08.139-.171.268-.243.412L76.422,205.267A42.105,42.105,0,0,0,72,224a24,24,0,0,0,48,0,42.105,42.105,0,0,0-4.422-18.733l-7.155-14.309,22.107-7.369a7.992,7.992,0,0,0,3.127-1.932L147.313,168H256V152H163.313l10.344-10.343L179.313,136H256V120H195.313L208,107.313l.453.454A21.918,21.918,0,0,0,242.545,104H256V88H245.557c-.179-.92-4.4-13.84-4.4-13.84l2.16-2.16h56.043l29.7,51.969,13.892-7.938-32-56A8,8,0,0,0,304,56H272a32.058,32.058,0,0,1-30.988-24H325.1l45.774,38.146A8,8,0,0,0,376,72h56V184H416V88H400v96H152a7.893,7.893,0,0,1-4-1.066l-8,13.858A24.034,24.034,0,0,0,152,200H440a8,8,0,0,0,8-8V80h40v96H464v16h32a8,8,0,0,0,8-8V72A8,8,0,0,0,496,64ZM96,232a8.009,8.009,0,0,1-8-8,26.025,26.025,0,0,1,2.733-11.578L96,201.889l5.267,10.533A26.025,26.025,0,0,1,104,224,8.009,8.009,0,0,1,96,232Zm10.161-57.153-1.008-1.008,5.839-17.518L144,123.314,156.686,136l-33.007,33.008ZM168,124.686,155.314,112,184,83.314,196.686,96ZM156.687,88H152a8,8,0,0,1,0-16h20.687Zm73.073,5.829a5.977,5.977,0,0,1-9.993,2.624l-6.11-6.11-24-24-6.11-6.11a6.07,6.07,0,0,1-.692-.834A5.874,5.874,0,0,1,181.8,56a5.978,5.978,0,0,1,7.869-5.681l15.8,5.27a8,8,0,0,0,8.188-1.932l13.237-13.238a48.062,48.062,0,0,0,9.565,15.809L226.343,66.343a8,8,0,0,0-1.932,8.188l5.264,15.782a6.066,6.066,0,0,1,.3,1.907A6.128,6.128,0,0,1,229.76,93.829Z"/><path d="M144,32V16a40.045,40.045,0,0,0-40,40h16A24.027,24.027,0,0,1,144,32Z"/></g></svg>
