<svg xmlns="http://www.w3.org/2000/svg" width="20.828" height="23.989" viewBox="0 0 20.828 23.989"><defs><style>.a{fill:#fff;}</style></defs><path class="a" d="M10.565,25.917c-1.6-3.327-.747-5.233.481-7.029a11.2,11.2,0,0,0,1.692-3.914,4.6,4.6,0,0,1,.635,3.526,8.9,8.9,0,0,0,1.939-6.664,11.508,11.508,0,0,1,3.6,14.081C31.849,18.6,22.128,7.64,20.435,6.406c.564,1.234.671,3.323-.469,4.337-1.929-7.316-6.7-8.815-6.7-8.815.564,3.773-2.045,7.9-4.561,10.981a8.154,8.154,0,0,0-.973-3.982c-.178,2.733-2.266,4.961-2.832,7.7C4.135,20.334,5.475,23.049,10.565,25.917Z" transform="translate(-4.701 -1.928)"/></svg>