<svg xmlns="http://www.w3.org/2000/svg" width="17.34" height="28.678" viewBox="0 0 17.34 28.678"><defs><style>.a{fill:#333;opacity:0.5;}</style></defs><path class="a" d="M19,7.585a2.668,2.668,0,1,0-2.668-2.668A2.676,2.676,0,0,0,19,7.585Zm-4.935,4.535L10.334,30.928h2.8l2.4-10.671,2.8,2.668v8H21v-10l-2.8-2.668.8-4a9.767,9.767,0,0,0,7.336,3.335V14.922a6.561,6.561,0,0,1-5.736-3.2L19.271,9.586A2.751,2.751,0,0,0,17,8.252c-.4,0-.667.133-1.067.133L9,11.32v6.269h2.668V13.054l2.4-.934" transform="translate(-9 -2.25)"/></svg>