<svg xmlns="http://www.w3.org/2000/svg" width="26.787" height="30.777" viewBox="0 0 26.787 30.777"><defs><style>.a{opacity:0.5;}</style></defs><g class="a"><path d="M12.616,21.845c.168,2.909-.438,4.06-2.461,4.384s-3.985-1.42-4.382-3.9c-.181-1.138-.363-3.451-.594-4.463L3.441,12.977c-.1-.432-1.246-2.492-1.427-3.389A3.368,3.368,0,0,1,4.642,5.619l3.184-.642c.476-.1,1.9-.191,1.9-.191,1.952,0,2.893,1.009,2.893,2.961,0,1.132-2.006,2.874-2.006,2.874s-2.839,2.733-1.846,4.764S12.016,18,12.616,21.845ZM10.349,4.286c.806,0,1.462-.962,1.462-2.145S11.156,0,10.349,0,8.882.961,8.882,2.141,9.537,4.286,10.349,4.286ZM7.235,4.068c.519-.073.853-.748.743-1.508S7.36,1.244,6.841,1.319,5.99,2.068,6.1,2.828,6.716,4.141,7.235,4.068Zm-2.22.6c.376-.089.575-.606.446-1.153s-.54-.922-.914-.833-.575.6-.444,1.153S4.638,4.758,5.014,4.67Zm-1.8,1.177c.328-.129.44-.625.249-1.105s-.609-.766-.937-.635-.44.625-.249,1.105S2.891,5.975,3.219,5.846Zm-1.956.139C1.045,6.07.97,6.4,1.1,6.718s.405.507.623.422.293-.415.168-.733S1.481,5.9,1.263,5.985Zm23.026,4.639s-2.648-.777-3.115-.912S19.3,9.358,19.3,9.358c-1.946-.166-2.968.76-3.134,2.7-.1,1.124,1.749,3.032,1.749,3.032s2.6,2.966,1.431,4.9-3.462,2.332-4.386,6.107c-.417,2.88.091,4.081,2.073,4.581s4.091-1.076,4.7-3.507c.28-1.123.656-3.41.976-4.4l2.149-4.724c.137-.424,1.454-2.376,1.713-3.254A3.37,3.37,0,0,0,24.289,10.624ZM18.717,8.8c.806.069,1.541-.829,1.643-2.01S19.891,4.6,19.083,4.533s-1.541.829-1.643,2.01S17.91,8.735,18.717,8.8Zm3.123.05c.509.118,1.063-.393,1.236-1.138s-.1-1.447-.611-1.564S21.4,6.544,21.23,7.289,21.332,8.735,21.839,8.853ZM24,9.642c.365.12.8-.216.98-.75S25,7.825,24.638,7.705s-.8.216-.982.75S23.633,9.522,24,9.642ZM26.522,9.3c-.318-.158-.762.087-.991.55s-.16.964.158,1.123.762-.087.991-.55S26.839,9.455,26.522,9.3Zm1.1,1.975c-.21-.1-.505.06-.66.366s-.106.642.106.746.505-.058.66-.366S27.838,11.38,27.626,11.274Z" transform="translate(-1.035 0)"/></g></svg>