<svg xmlns="http://www.w3.org/2000/svg" width="28.369" height="26.675" viewBox="0 0 28.369 26.675"><defs><style>.a{opacity:0.5;}</style></defs><path class="a" d="M17.741,14.86l-2.754,5.918a.861.861,0,0,1-1.6-.036l-3.153-7.52L8.571,17.492H3.357L13.469,28.6a.94.94,0,0,0,1.424,0l10.117-11.1H18.965Zm8.5-10.116L26.112,4.6a6.912,6.912,0,0,0-10.383,0L14.184,6.3,12.638,4.6a6.9,6.9,0,0,0-10.383,0l-.133.143a8.635,8.635,0,0,0-.4,10.842H7.391L9.38,10.454a.865.865,0,0,1,1.629-.024l3.225,7.7L16.948,12.3a.859.859,0,0,1,1.585,0l1.529,3.287H26.65a8.635,8.635,0,0,0-.4-10.842Z" transform="translate(0.001 -2.246)"/></svg>