<svg xmlns="http://www.w3.org/2000/svg" width="23.602" height="25.752" viewBox="0 0 23.602 25.752"><defs><style>.a{opacity:0.5;}</style></defs><path class="a" d="M27.175,23.958c-.194.007-.389.013-.583.013a11.821,11.821,0,0,1-8.5-3.581,12.215,12.215,0,0,1-3.52-8.636,12.369,12.369,0,0,1,1.173-5.277,17.476,17.476,0,0,1,.912-1.569.264.264,0,0,0-.261-.409A12.909,12.909,0,0,0,5.625,17.306,12.844,12.844,0,0,0,18.371,30.247a12.64,12.64,0,0,0,9.716-4.566,12.248,12.248,0,0,0,1.1-1.462.27.27,0,0,0-.275-.409A11.451,11.451,0,0,1,27.175,23.958Z" transform="translate(-5.625 -4.496)"/></svg>