<svg id="_x33_0" enable-background="new 0 0 64 64" height="512" viewBox="0 0 64 64" width="512" xmlns="http://www.w3.org/2000/svg"><g><g><g><path d="m34 51c-3.859 0-7-3.141-7-7s3.141-7 7-7 7 3.141 7 7-3.141 7-7 7zm0-10c-1.654 0-3 1.346-3 3s1.346 3 3 3 3-1.346 3-3-1.346-3-3-3z" fill="#f0bc5e"/></g></g><g><path d="m54.641 39.885c-.202.069-.415.115-.641.115-.688 0-1.295-.348-1.655-.878-.438-.074-.886-.122-1.345-.122-4.411 0-8 3.589-8 8s3.589 8 8 8 8-3.589 8-8c0-3.099-1.775-5.787-4.359-7.115zm-3.641 10.115c-1.654 0-3-1.346-3-3s1.346-3 3-3 3 1.346 3 3-1.346 3-3 3z" fill="#f0bc5e"/></g><g><path d="m44.703 23.036c-.351.576-.979.964-1.703.964-.543 0-1.034-.218-1.394-.569-2.682.981-4.606 3.551-4.606 6.569 0 3.859 3.141 7 7 7s7-3.141 7-7c0-3.622-2.766-6.61-6.297-6.964zm-.703 8.964c-1.103 0-2-.897-2-2s.897-2 2-2 2 .897 2 2-.897 2-2 2z" fill="#f0bc5e"/></g><g><path d="m34 41c-1.654 0-3 1.346-3 3s1.346 3 3 3 3-1.346 3-3-1.346-3-3-3zm0 4c-.552 0-1-.448-1-1s.448-1 1-1 1 .448 1 1-.448 1-1 1z"/><path d="m41 53c-1.654 0-3 1.346-3 3s1.346 3 3 3 3-1.346 3-3-1.346-3-3-3zm0 4c-.552 0-1-.448-1-1s.448-1 1-1 1 .448 1 1-.448 1-1 1z"/><path d="m51 51c2.206 0 4-1.794 4-4s-1.794-4-4-4-4 1.794-4 4 1.794 4 4 4zm0-6c1.103 0 2 .897 2 2s-.897 2-2 2-2-.897-2-2 .897-2 2-2z"/><path d="m54 41c1.654 0 3-1.346 3-3s-1.346-3-3-3-3 1.346-3 3 1.346 3 3 3zm0-4c.552 0 1 .448 1 1s-.448 1-1 1-1-.448-1-1 .448-1 1-1z"/><path d="m41 30c0 1.654 1.346 3 3 3s3-1.346 3-3-1.346-3-3-3-3 1.346-3 3zm4 0c0 .551-.448 1-1 1s-1-.449-1-1 .448-1 1-1 1 .449 1 1z"/><path d="m40 22c0 1.654 1.346 3 3 3s3-1.346 3-3-1.346-3-3-3-3 1.346-3 3zm4 0c0 .551-.448 1-1 1s-1-.449-1-1 .448-1 1-1 1 .449 1 1z"/><path d="m36 33c0-1.654-1.346-3-3-3s-3 1.346-3 3 1.346 3 3 3 3-1.346 3-3zm-4 0c0-.551.448-1 1-1s1 .449 1 1c0 .552-.448 1-1 1s-1-.448-1-1z"/><path d="m18 17h-2c-1.654 0-3 1.346-3 3v4c0 1.654 1.346 3 3 3h2c1.654 0 3-1.346 3-3v-4c0-1.654-1.346-3-3-3zm1 7c0 .551-.448 1-1 1h-2c-.552 0-1-.449-1-1v-4c0-.551.448-1 1-1h2c.552 0 1 .449 1 1z"/><path d="m27 11h-4v2h4v2h-2c-1.103 0-2 .897-2 2v2c0 1.103.897 2 2 2h4v-2h-4v-2h2c1.103 0 2-.897 2-2v-2c0-1.103-.897-2-2-2z"/><path d="m63 24c0-5.514-4.486-10-10-10-.432 0-.858.034-1.279.088-1.383-7.529-7.955-13.088-15.721-13.088-3.568 0-7.02 1.189-9.819 3.367-1.285-1.181-4.32-3.367-9.181-3.367-7.72 0-14 6.28-14 14 0 2.088.467 4.149 1.357 6.019-1.294.787-3.357 2.575-3.357 5.981 0 3.86 3.141 7 7 7h17.06c-1.262 2.997-2.06 6.051-2.06 9 0 11.028 8.972 20 20 20s20-8.972 20-20c0-3.812-1.327-7.799-3.279-11.611 2.087-1.894 3.279-4.536 3.279-7.389zm-2 0c0 2.112-.818 4.08-2.263 5.563-2.775-4.865-6.425-9.339-9.442-12.648 1.138-.597 2.398-.915 3.705-.915 4.411 0 8 3.589 8 8zm-53 8c-2.757 0-5-2.243-5-5 0-3.428 2.932-4.563 3.051-4.607l1.121-.404-.593-1.034c-1.033-1.803-1.579-3.862-1.579-5.955 0-6.617 5.383-12 12-12 5.521 0 8.219 3.217 8.328 3.35l.654.814.785-.689c2.553-2.241 5.833-3.475 9.233-3.475 6.824 0 12.595 4.906 13.77 11.537-.653.223-1.282.513-1.881.87-2.299-2.415-3.995-3.949-4.222-4.152l-.667-.597-.667.597c-.59.528-11.094 10.02-16.365 20.745zm35 29c-9.925 0-18-8.075-18-18 0-11.928 14.667-26.482 18-29.635 3.333 3.151 18 17.7 18 29.635 0 9.925-8.075 18-18 18z"/></g></g></svg>